<svg width="800" height="800" viewBox="0 0 800 800" fill="none"
    xmlns="http://www.w3.org/2000/svg">
    <g class="Frame 304">
        <g class="q-illustration">
            <g class="q-round">
                <ellipse class="q-circle-outer" opacity="0.1" cx="399.931" cy="399.936" rx="279.478" ry="279.114" stroke="#1D1D1D" stroke-width="3" stroke-linecap="round" stroke-linejoin="round" stroke-dasharray="6 6"/>
                <g class="q-lines-light" opacity="0.2">
                    <path class="Vector 79" d="M179.854 526.82L619.992 273.037" stroke="#FFA723" stroke-width="2" stroke-linecap="round" stroke-linejoin="round" stroke-dasharray="4 4"/>
                    <path class="Vector 80" d="M272.867 180.146L526.981 619.711" stroke="#FFA723" stroke-width="2" stroke-linecap="round" stroke-linejoin="round" stroke-dasharray="4 4"/>
                </g>
                <g class="q-lines-dark">
                    <g class="Group 573" opacity="0.2">
                        <path class="Vector 79_2" d="M144.262 331.512L655.633 468.355" stroke="#1D1D1D" stroke-width="2" stroke-linecap="round" stroke-linejoin="round" stroke-dasharray="4 4"/>
                        <path class="Vector 80_2" d="M468.465 144.582L331.443 655.288" stroke="#1D1D1D" stroke-width="2" stroke-linecap="round" stroke-linejoin="round" stroke-dasharray="4 4"/>
                    </g>
                </g>
                <g class="q-item">
                    <g class="q-item-inner">
                        <ellipse class="Ellipse 172" cx="702.378" cy="478.611" rx="59.6219" ry="59.5442" fill="#FFF5E5"/>
                        <g class="bi:people-fill" clip-path="url(#clip0_1125_545)">
                            <g class="Group">
                                <path class="Vector" d="M699.586 495.357C699.586 495.357 696.791 495.357 696.791 492.566C696.791 489.775 699.586 481.401 710.765 481.401C721.944 481.401 724.739 489.775 724.739 492.566C724.739 495.357 721.944 495.357 721.944 495.357H699.586ZM710.765 478.61C712.989 478.61 715.121 477.728 716.694 476.158C718.266 474.587 719.149 472.457 719.149 470.237C719.149 468.016 718.266 465.886 716.694 464.316C715.121 462.745 712.989 461.863 710.765 461.863C708.541 461.863 706.409 462.745 704.836 464.316C703.264 465.886 702.381 468.016 702.381 470.237C702.381 472.457 703.264 474.587 704.836 476.158C706.409 477.728 708.541 478.61 710.765 478.61V478.61Z" fill="#FFA723"/>
                                <path class="Vector_2" fill-rule="evenodd" clip-rule="evenodd" d="M694.599 495.357C694.185 494.486 693.978 493.531 693.995 492.566C693.995 488.784 695.896 484.891 699.406 482.183C697.654 481.644 695.829 481.38 693.995 481.402C682.816 481.402 680.021 489.775 680.021 492.566C680.021 495.357 682.816 495.357 682.816 495.357H694.599Z" fill="#FFA723"/>
                                <path class="Vector_3" d="M692.598 478.61C694.451 478.61 696.228 477.875 697.539 476.566C698.849 475.258 699.585 473.483 699.585 471.632C699.585 469.781 698.849 468.007 697.539 466.698C696.228 465.389 694.451 464.654 692.598 464.654C690.745 464.654 688.968 465.389 687.658 466.698C686.347 468.007 685.611 469.781 685.611 471.632C685.611 473.483 686.347 475.258 687.658 476.566C688.968 477.875 690.745 478.61 692.598 478.61V478.61Z" fill="#FFA723"/>
                            </g>
                        </g>
                    </g>
                </g>
                <g class="q-item">
                    <g class="q-item-inner">
                        <ellipse class="Ellipse 172_2" cx="480.559" cy="97.5442" rx="59.6219" ry="59.5442" fill="#FFF5E5"/>
                        <g class="bi:people-fill_2" clip-path="url(#clip1_1125_545)">
                            <g class="Group_2">
                                <path class="Vector_4" d="M477.767 114.291C477.767 114.291 474.973 114.291 474.973 111.499C474.973 108.708 477.767 100.335 488.947 100.335C500.126 100.335 502.92 108.708 502.92 111.499C502.92 114.291 500.126 114.291 500.126 114.291H477.767ZM488.947 97.5437C491.17 97.5437 493.303 96.6615 494.875 95.0912C496.448 93.5209 497.331 91.3911 497.331 89.1703C497.331 86.9495 496.448 84.8197 494.875 83.2494C493.303 81.6791 491.17 80.7969 488.947 80.7969C486.723 80.7969 484.59 81.6791 483.018 83.2494C481.446 84.8197 480.562 86.9495 480.562 89.1703C480.562 91.3911 481.446 93.5209 483.018 95.0912C484.59 96.6615 486.723 97.5437 488.947 97.5437V97.5437Z" fill="#FFA723"/>
                                <path class="Vector_5" fill-rule="evenodd" clip-rule="evenodd" d="M472.781 114.291C472.366 113.42 472.16 112.464 472.177 111.5C472.177 107.718 474.077 103.824 477.588 101.117C475.836 100.578 474.01 100.314 472.177 100.335C460.998 100.335 458.203 108.709 458.203 111.5C458.203 114.291 460.998 114.291 460.998 114.291H472.781Z" fill="#FFA723"/>
                                <path class="Vector_6" d="M470.78 97.5436C472.633 97.5436 474.41 96.8084 475.72 95.4998C477.031 94.1912 477.767 92.4164 477.767 90.5657C477.767 88.7151 477.031 86.9403 475.72 85.6317C474.41 84.3231 472.633 83.5879 470.78 83.5879C468.927 83.5879 467.15 84.3231 465.839 85.6317C464.529 86.9403 463.793 88.7151 463.793 90.5657C463.793 92.4164 464.529 94.1912 465.839 95.4998C467.15 96.8084 468.927 97.5436 470.78 97.5436V97.5436Z" fill="#FFA723"/>
                            </g>
                        </g>
                    </g>
                </g>
                <g class="q-item">
                    <g class="q-item-inner">
                        <ellipse class="Ellipse 172_3" cx="322.118" cy="702.454" rx="59.6219" ry="59.5442" fill="#FFF5E5"/>
                        <g class="bi:people-fill_3" clip-path="url(#clip2_1125_545)">
                            <g class="Group_3">
                                <path class="Vector_7" d="M319.326 719.201C319.326 719.201 316.531 719.201 316.531 716.41C316.531 713.618 319.326 705.245 330.505 705.245C341.684 705.245 344.479 713.618 344.479 716.41C344.479 719.201 341.684 719.201 341.684 719.201H319.326ZM330.505 702.454C332.729 702.454 334.861 701.572 336.434 700.001C338.006 698.431 338.889 696.301 338.889 694.08C338.889 691.86 338.006 689.73 336.434 688.16C334.861 686.589 332.729 685.707 330.505 685.707C328.281 685.707 326.149 686.589 324.577 688.16C323.004 689.73 322.121 691.86 322.121 694.08C322.121 696.301 323.004 698.431 324.577 700.001C326.149 701.572 328.281 702.454 330.505 702.454V702.454Z" fill="#FFA723"/>
                                <path class="Vector_8" fill-rule="evenodd" clip-rule="evenodd" d="M314.339 719.201C313.925 718.33 313.718 717.374 313.736 716.41C313.736 712.628 315.636 708.734 319.146 706.027C317.394 705.488 315.569 705.224 313.736 705.245C302.556 705.245 299.762 713.619 299.762 716.41C299.762 719.201 302.556 719.201 302.556 719.201H314.339Z" fill="#FFA723"/>
                                <path class="Vector_9" d="M312.339 702.454C314.192 702.454 315.969 701.719 317.279 700.41C318.589 699.101 319.325 697.327 319.325 695.476C319.325 693.625 318.589 691.85 317.279 690.542C315.969 689.233 314.192 688.498 312.339 688.498C310.485 688.498 308.708 689.233 307.398 690.542C306.088 691.85 305.352 693.625 305.352 695.476C305.352 697.327 306.088 699.101 307.398 700.41C308.708 701.719 310.485 702.454 312.339 702.454V702.454Z" fill="#FFA723"/>
                            </g>
                        </g>
                    </g>
                </g>
                <g class="q-item">
                    <g class="q-item-inner">
                        <ellipse class="Ellipse 172_4" cx="97.6219" cy="316.779" rx="59.6219" ry="59.5442" fill="#FFF5E5"/>
                        <g class="bi:people-fill_4" clip-path="url(#clip3_1125_545)">
                            <g class="Group_4">
                                <path class="Vector_10" d="M94.8299 333.527C94.8299 333.527 92.0352 333.527 92.0352 330.736C92.0352 327.945 94.8299 319.571 106.009 319.571C117.188 319.571 119.983 327.945 119.983 330.736C119.983 333.527 117.188 333.527 117.188 333.527H94.8299ZM106.009 316.78C108.233 316.78 110.365 315.898 111.938 314.328C113.51 312.757 114.393 310.627 114.393 308.407C114.393 306.186 113.51 304.056 111.938 302.486C110.365 300.915 108.233 300.033 106.009 300.033C103.785 300.033 101.653 300.915 100.08 302.486C98.5081 304.056 97.6247 306.186 97.6247 308.407C97.6247 310.627 98.5081 312.757 100.08 314.328C101.653 315.898 103.785 316.78 106.009 316.78V316.78Z" fill="#FFA723"/>
                                <path class="Vector_11" fill-rule="evenodd" clip-rule="evenodd" d="M89.8432 333.527C89.4289 332.656 89.2222 331.7 89.2395 330.736C89.2395 326.954 91.1399 323.06 94.6502 320.353C92.8981 319.814 91.0727 319.55 89.2395 319.572C78.0604 319.572 75.2656 327.945 75.2656 330.736C75.2656 333.527 78.0604 333.527 78.0604 333.527H89.8432Z" fill="#FFA723"/>
                                <path class="Vector_12" d="M87.8424 316.78C89.6955 316.78 91.4726 316.045 92.7829 314.736C94.0932 313.428 94.8293 311.653 94.8293 309.802C94.8293 307.951 94.0932 306.177 92.7829 304.868C91.4726 303.559 89.6955 302.824 87.8424 302.824C85.9894 302.824 84.2122 303.559 82.9019 304.868C81.5916 306.177 80.8555 307.951 80.8555 309.802C80.8555 311.653 81.5916 313.428 82.9019 314.736C84.2122 316.045 85.9894 316.78 87.8424 316.78V316.78Z" fill="#FFA723"/>
                            </g>
                        </g>
                    </g>
                </g>
                <g class="q-small-item">
                    <g class="q-smal-item-inner">
                        <ellipse class="Ellipse 172_5" cx="536.863" cy="643.065" rx="37.2637" ry="37.2151" fill="#DDDDDD"/>
                        <g class="bi:people-fill_5" clip-path="url(#clip4_1125_545)">
                            <g class="Group_5">
                                <path class="Vector_13" d="M535.116 653.529C535.116 653.529 533.369 653.529 533.369 651.785C533.369 650.04 535.116 644.807 542.103 644.807C549.09 644.807 550.836 650.04 550.836 651.785C550.836 653.529 549.09 653.529 549.09 653.529L535.116 653.529ZM542.103 643.062C543.493 643.062 544.825 642.511 545.808 641.53C546.791 640.548 547.343 639.217 547.343 637.829C547.343 636.441 546.791 635.11 545.808 634.129C544.825 633.147 543.493 632.596 542.103 632.596C540.713 632.596 539.38 633.147 538.397 634.129C537.415 635.11 536.863 636.441 536.863 637.829C536.863 639.217 537.415 640.548 538.397 641.53C539.38 642.511 540.713 643.062 542.103 643.062V643.062Z" fill="#1D1D1D"/>
                                <path class="Vector_14" fill-rule="evenodd" clip-rule="evenodd" d="M532 653.53C531.741 652.985 531.612 652.388 531.622 651.785C531.622 649.421 532.81 646.988 535.004 645.296C533.909 644.959 532.768 644.794 531.622 644.807C524.635 644.807 522.889 650.041 522.889 651.785C522.889 653.53 524.635 653.53 524.635 653.53L532 653.53Z" fill="#1D1D1D"/>
                                <path class="Vector_15" d="M530.75 643.062C531.908 643.062 533.019 642.603 533.837 641.785C534.656 640.967 535.116 639.858 535.116 638.701C535.116 637.544 534.656 636.435 533.837 635.617C533.019 634.799 531.908 634.34 530.75 634.34C529.591 634.34 528.481 634.799 527.662 635.617C526.843 636.435 526.383 637.544 526.383 638.701C526.383 639.858 526.843 640.967 527.662 641.785C528.481 642.603 529.591 643.062 530.75 643.062V643.062Z" fill="#1D1D1D"/>
                            </g>
                        </g>
                    </g>
                </g>
                <g class="q-small-item">
                    <g class="q-smal-item-inner">
                        <ellipse class="Ellipse 172_6" cx="637.793" cy="266.875" rx="37.2637" ry="37.2151" fill="#DDDDDD"/>
                        <g class="bi:people-fill_6" clip-path="url(#clip5_1125_545)">
                            <g class="Group_6">
                                <path class="Vector_16" d="M636.046 277.342C636.046 277.342 634.299 277.342 634.299 275.597C634.299 273.853 636.046 268.619 643.033 268.619C650.019 268.619 651.766 273.853 651.766 275.597C651.766 277.342 650.019 277.342 650.019 277.342L636.046 277.342ZM643.033 266.875C644.422 266.875 645.755 266.324 646.738 265.342C647.721 264.361 648.273 263.03 648.273 261.642C648.273 260.254 647.721 258.922 646.738 257.941C645.755 256.96 644.422 256.408 643.033 256.408C641.643 256.408 640.31 256.96 639.327 257.941C638.344 258.922 637.792 260.254 637.792 261.642C637.792 263.03 638.344 264.361 639.327 265.342C640.31 266.324 641.643 266.875 643.033 266.875V266.875Z" fill="#1D1D1D"/>
                                <path class="Vector_17" fill-rule="evenodd" clip-rule="evenodd" d="M632.929 277.342C632.67 276.798 632.541 276.201 632.552 275.598C632.552 273.234 633.74 270.8 635.934 269.108C634.839 268.771 633.698 268.607 632.552 268.62C625.565 268.62 623.818 273.853 623.818 275.598C623.818 277.342 625.565 277.342 625.565 277.342L632.929 277.342Z" fill="#1D1D1D"/>
                                <path class="Vector_18" d="M631.679 266.875C632.837 266.875 633.948 266.415 634.767 265.597C635.586 264.779 636.046 263.67 636.046 262.513C636.046 261.357 635.586 260.248 634.767 259.43C633.948 258.612 632.837 258.152 631.679 258.152C630.521 258.152 629.41 258.612 628.592 259.43C627.773 260.248 627.313 261.357 627.313 262.513C627.313 263.67 627.773 264.779 628.592 265.597C629.41 266.415 630.521 266.875 631.679 266.875V266.875Z" fill="#1D1D1D"/>
                            </g>
                        </g>
                    </g>
                </g>
                <g class="q-small-item">
                    <g class="q-smal-item-inner">
                        <ellipse class="Ellipse 172_7" cx="161.113" cy="543.873" rx="37.2637" ry="37.2151" fill="#DDDDDD"/>
                        <g class="bi:people-fill_7" clip-path="url(#clip6_1125_545)">
                            <g class="Group_7">
                                <path class="Vector_19" d="M159.366 554.34C159.366 554.34 157.619 554.34 157.619 552.595C157.619 550.851 159.366 545.617 166.353 545.617C173.34 545.617 175.086 550.851 175.086 552.595C175.086 554.34 173.34 554.34 173.34 554.34L159.366 554.34ZM166.353 543.873C167.743 543.873 169.075 543.322 170.058 542.34C171.041 541.359 171.593 540.028 171.593 538.64C171.593 537.252 171.041 535.921 170.058 534.939C169.075 533.958 167.743 533.406 166.353 533.406C164.963 533.406 163.63 533.958 162.647 534.939C161.665 535.921 161.113 537.252 161.113 538.64C161.113 540.028 161.665 541.359 162.647 542.34C163.63 543.322 164.963 543.873 166.353 543.873V543.873Z" fill="#1D1D1D"/>
                                <path class="Vector_20" fill-rule="evenodd" clip-rule="evenodd" d="M156.25 554.34C155.991 553.796 155.862 553.199 155.872 552.596C155.872 550.232 157.06 547.799 159.254 546.106C158.159 545.769 157.018 545.605 155.872 545.618C148.885 545.618 147.139 550.851 147.139 552.596C147.139 554.34 148.885 554.34 148.885 554.34L156.25 554.34Z" fill="#1D1D1D"/>
                                <path class="Vector_21" d="M155 543.873C156.158 543.873 157.269 543.413 158.087 542.595C158.906 541.777 159.366 540.668 159.366 539.512C159.366 538.355 158.906 537.246 158.087 536.428C157.269 535.61 156.158 535.15 155 535.15C153.841 535.15 152.731 535.61 151.912 536.428C151.093 537.246 150.633 538.355 150.633 539.512C150.633 540.668 151.093 541.777 151.912 542.595C152.731 543.413 153.841 543.873 155 543.873V543.873Z" fill="#1D1D1D"/>
                            </g>
                        </g>
                    </g>
                </g>
                <g class="q-small-item">
                    <g class="q-smal-item-inner">
                        <ellipse class="Ellipse 172_8" cx="261.113" cy="166.075" rx="37.2637" ry="37.2151" fill="#DDDDDD"/>
                        <g class="bi:people-fill_8" clip-path="url(#clip7_1125_545)">
                            <g class="Group_8">
                                <path class="Vector_22" d="M259.366 176.541C259.366 176.541 257.619 176.541 257.619 174.796C257.619 173.052 259.366 167.819 266.353 167.819C273.34 167.819 275.086 173.052 275.086 174.796C275.086 176.541 273.34 176.541 273.34 176.541L259.366 176.541ZM266.353 166.074C267.743 166.074 269.075 165.523 270.058 164.541C271.041 163.56 271.593 162.229 271.593 160.841C271.593 159.453 271.041 158.122 270.058 157.14C269.075 156.159 267.743 155.607 266.353 155.607C264.963 155.607 263.63 156.159 262.647 157.14C261.665 158.122 261.113 159.453 261.113 160.841C261.113 162.229 261.665 163.56 262.647 164.541C263.63 165.523 264.963 166.074 266.353 166.074V166.074Z" fill="#1D1D1D"/>
                                <path class="Vector_23" fill-rule="evenodd" clip-rule="evenodd" d="M256.25 176.541C255.991 175.997 255.862 175.4 255.872 174.797C255.872 172.433 257.06 170 259.254 168.308C258.159 167.971 257.018 167.806 255.872 167.819C248.885 167.819 247.139 173.052 247.139 174.797C247.139 176.541 248.885 176.541 248.885 176.541L256.25 176.541Z" fill="#1D1D1D"/>
                                <path class="Vector_24" d="M255 166.074C256.158 166.074 257.269 165.614 258.087 164.797C258.906 163.979 259.366 162.869 259.366 161.713C259.366 160.556 258.906 159.447 258.087 158.629C257.269 157.811 256.158 157.352 255 157.352C253.841 157.352 252.731 157.811 251.912 158.629C251.093 159.447 250.633 160.556 250.633 161.713C250.633 162.869 251.093 163.979 251.912 164.797C252.731 165.614 253.841 166.074 255 166.074V166.074Z" fill="#1D1D1D"/>
                            </g>
                        </g>
                    </g>
                </g>
            </g>
            <ellipse class="q-circle-center" cx="399.932" cy="399.935" rx="223.582" ry="223.291" fill="url(#paint0_radial_1125_545)"/>
            <path class="q-word" d="M372.876 445.052V441.319C372.95 428.513 374.093 418.305 376.306 410.694C378.593 403.084 381.913 396.937 386.266 392.253C390.618 387.57 395.856 383.325 401.979 379.52C406.553 376.593 410.647 373.556 414.262 370.409C417.877 367.263 420.754 363.787 422.893 359.981C425.032 356.103 426.102 351.785 426.102 347.029C426.102 341.979 424.885 337.552 422.45 333.747C420.016 329.941 416.733 327.014 412.602 324.965C408.545 322.916 404.044 321.892 399.102 321.892C394.307 321.892 389.77 322.953 385.491 325.075C381.212 327.124 377.708 330.197 374.979 334.295C372.249 338.32 370.774 343.333 370.552 349.334H325.404C325.773 334.698 329.314 322.623 336.027 313.11C342.74 303.524 351.63 296.389 362.696 291.705C373.761 286.949 385.97 284.57 399.323 284.57C414.004 284.57 426.987 286.985 438.274 291.815C449.561 296.572 458.414 303.487 464.832 312.561C471.25 321.635 474.459 332.576 474.459 345.382C474.459 353.944 473.021 361.555 470.144 368.214C467.34 374.8 463.393 380.654 458.303 385.777C453.213 390.826 447.201 395.4 440.266 399.498C434.438 402.937 429.643 406.523 425.881 410.255C422.192 413.987 419.426 418.305 417.582 423.208C415.811 428.111 414.889 434.148 414.815 441.319V445.052H372.876ZM394.786 515.304C387.409 515.304 381.102 512.742 375.864 507.62C370.7 502.424 368.155 496.204 368.228 488.959C368.155 481.788 370.7 475.641 375.864 470.518C381.102 465.396 387.409 462.835 394.786 462.835C401.794 462.835 407.954 465.396 413.266 470.518C418.577 475.641 421.27 481.788 421.344 488.959C421.27 493.789 419.979 498.217 417.471 502.241C415.036 506.193 411.827 509.376 407.844 511.791C403.86 514.133 399.508 515.304 394.786 515.304Z" fill="#FFA723"/>
        </g>
    </g>
    <defs>
        <radialGradient class="paint0_radial_1125_545" cx="0" cy="0" r="1" gradientUnits="userSpaceOnUse" gradientTransform="translate(399.932 399.935) rotate(90.0988) scale(223.428 223.72)">
            <stop stop-color="#FFA723" stop-opacity="0.5"/>
            <stop offset="0.557292" stop-color="#FFA723" stop-opacity="0.28"/>
            <stop offset="1" stop-color="#FFA723" stop-opacity="0"/>
        </radialGradient>
        <clipPath class="clip0_1125_545">
            <rect width="44.7164" height="44.6582" fill="white" transform="translate(680.021 456.281)"/>
        </clipPath>
        <clipPath class="clip1_1125_545">
            <rect width="44.7164" height="44.6582" fill="white" transform="translate(458.203 75.2148)"/>
        </clipPath>
        <clipPath class="clip2_1125_545">
            <rect width="44.7164" height="44.6582" fill="white" transform="translate(299.762 680.125)"/>
        </clipPath>
        <clipPath class="clip3_1125_545">
            <rect width="44.7164" height="44.6582" fill="white" transform="translate(75.2656 294.451)"/>
        </clipPath>
        <clipPath class="clip4_1125_545">
            <rect width="27.9477" height="27.9114" fill="white" transform="translate(522.889 629.107)"/>
        </clipPath>
        <clipPath class="clip5_1125_545">
            <rect width="27.9477" height="27.9114" fill="white" transform="translate(623.818 252.92)"/>
        </clipPath>
        <clipPath class="clip6_1125_545">
            <rect width="27.9477" height="27.9114" fill="white" transform="translate(147.139 529.918)"/>
        </clipPath>
        <clipPath class="clip7_1125_545">
            <rect width="27.9477" height="27.9114" fill="white" transform="translate(247.139 152.119)"/>
        </clipPath>
    </defs>
</svg>
