<svg width="799" height="799" viewBox="0 0 799 799" fill="none" xmlns="http://www.w3.org/2000/svg">
<g id="q-illustration">
<g id="q-round">
<ellipse id="q-circle-outer" opacity="0.1" cx="399.424" cy="399.429" rx="308.429" ry="308.027" stroke="#1D1D1D" stroke-width="3" stroke-linecap="round" stroke-linejoin="round" stroke-dasharray="6 6"/>
<g id="q-lines-light" opacity="0.2">
<path id="Vector 79" d="M156.551 539.461L642.284 259.389" stroke="#FFA723" stroke-width="2" stroke-linecap="round" stroke-linejoin="round" stroke-dasharray="4 4"/>
<path id="Vector 80" d="M259.201 156.875L539.639 641.974" stroke="#FFA723" stroke-width="2" stroke-linecap="round" stroke-linejoin="round" stroke-dasharray="4 4"/>
</g>
<g id="q-lines-dark">
<g id="Group 573" opacity="0.2">
<path id="Vector 79_2" d="M117.27 323.914L681.615 474.933" stroke="#1D1D1D" stroke-width="2" stroke-linecap="round" stroke-linejoin="round" stroke-dasharray="4 4"/>
<path id="Vector 80_2" d="M475.057 117.621L323.841 681.23" stroke="#1D1D1D" stroke-width="2" stroke-linecap="round" stroke-linejoin="round" stroke-dasharray="4 4"/>
</g>
</g>
<g id="q-item-4">
<ellipse id="Ellipse 172" cx="733.203" cy="486.251" rx="65.7983" ry="65.7124" fill="#FFF5E5"/>
<g id="bi:people-fill" clip-path="url(#clip0_1125_453)">
<g id="Group">
<path id="Vector" d="M730.119 504.733C730.119 504.733 727.035 504.733 727.035 501.652C727.035 498.572 730.119 489.331 742.457 489.331C754.794 489.331 757.878 498.572 757.878 501.652C757.878 504.733 754.794 504.733 754.794 504.733H730.119ZM742.457 486.251C744.911 486.251 747.264 485.278 748.999 483.545C750.735 481.812 751.71 479.461 751.71 477.01C751.71 474.56 750.735 472.209 748.999 470.476C747.264 468.743 744.911 467.77 742.457 467.77C740.003 467.77 737.649 468.743 735.914 470.476C734.179 472.209 733.204 474.56 733.204 477.01C733.204 479.461 734.179 481.812 735.914 483.545C737.649 485.278 740.003 486.251 742.457 486.251V486.251Z" fill="#FFA723"/>
<path id="Vector_2" fill-rule="evenodd" clip-rule="evenodd" d="M724.617 504.733C724.16 503.771 723.932 502.717 723.951 501.652C723.951 497.479 726.048 493.182 729.922 490.194C727.988 489.599 725.974 489.308 723.951 489.331C711.614 489.331 708.529 498.572 708.529 501.652C708.529 504.733 711.614 504.733 711.614 504.733H724.617Z" fill="#FFA723"/>
<path id="Vector_3" d="M722.408 486.251C724.453 486.251 726.414 485.44 727.86 483.995C729.306 482.551 730.119 480.593 730.119 478.55C730.119 476.508 729.306 474.549 727.86 473.105C726.414 471.661 724.453 470.85 722.408 470.85C720.363 470.85 718.402 471.661 716.956 473.105C715.51 474.549 714.697 476.508 714.697 478.55C714.697 480.593 715.51 482.551 716.956 483.995C718.402 485.44 720.363 486.251 722.408 486.251V486.251Z" fill="#FFA723"/>
</g>
</g>
</g>
<g id="q-item-3">
<ellipse id="Ellipse 172_2" cx="488.404" cy="65.7124" rx="65.7983" ry="65.7124" fill="#FFF5E5"/>
<g id="bi:people-fill_2" clip-path="url(#clip1_1125_453)">
<g id="Group_2">
<path id="Vector_4" d="M485.321 84.1937C485.321 84.1937 482.236 84.1937 482.236 81.1134C482.236 78.0332 485.321 68.7924 497.658 68.7924C509.995 68.7924 513.079 78.0332 513.079 81.1134C513.079 84.1937 509.995 84.1937 509.995 84.1937H485.321ZM497.658 65.7121C500.112 65.7121 502.465 64.7385 504.201 63.0055C505.936 61.2725 506.911 58.9221 506.911 56.4713C506.911 54.0205 505.936 51.67 504.201 49.937C502.465 48.2041 500.112 47.2305 497.658 47.2305C495.204 47.2305 492.85 48.2041 491.115 49.937C489.38 51.67 488.405 54.0205 488.405 56.4713C488.405 58.9221 489.38 61.2725 491.115 63.0055C492.85 64.7385 495.204 65.7121 497.658 65.7121V65.7121Z" fill="#FFA723"/>
<path id="Vector_5" fill-rule="evenodd" clip-rule="evenodd" d="M479.818 84.1937C479.361 83.2321 479.133 82.1778 479.152 81.1134C479.152 76.9396 481.249 72.6427 485.123 69.6548C483.19 69.0598 481.175 68.7688 479.152 68.7923C466.815 68.7923 463.73 78.0331 463.73 81.1134C463.73 84.1937 466.815 84.1937 466.815 84.1937H479.818Z" fill="#FFA723"/>
<path id="Vector_6" d="M477.609 65.7119C479.654 65.7119 481.615 64.9006 483.061 63.4564C484.508 62.0123 485.32 60.0536 485.32 58.0112C485.32 55.9689 484.508 54.0102 483.061 52.566C481.615 51.1219 479.654 50.3105 477.609 50.3105C475.564 50.3105 473.603 51.1219 472.157 52.566C470.711 54.0102 469.898 55.9689 469.898 58.0112C469.898 60.0536 470.711 62.0123 472.157 63.4564C473.603 64.9006 475.564 65.7119 477.609 65.7119V65.7119Z" fill="#FFA723"/>
</g>
</g>
</g>
<g id="q-item-2">
<ellipse id="Ellipse 172_3" cx="313.552" cy="733.287" rx="65.7983" ry="65.7124" fill="#FFF5E5"/>
<g id="bi:people-fill_3" clip-path="url(#clip2_1125_453)">
<g id="Group_3">
<path id="Vector_7" d="M310.469 751.768C310.469 751.768 307.385 751.768 307.385 748.688C307.385 745.607 310.469 736.367 322.806 736.367C335.143 736.367 338.228 745.607 338.228 748.688C338.228 751.768 335.143 751.768 335.143 751.768H310.469ZM322.806 733.286C325.26 733.286 327.614 732.313 329.349 730.58C331.084 728.847 332.059 726.496 332.059 724.045C332.059 721.595 331.084 719.244 329.349 717.511C327.614 715.778 325.26 714.805 322.806 714.805C320.352 714.805 317.999 715.778 316.263 717.511C314.528 719.244 313.553 721.595 313.553 724.045C313.553 726.496 314.528 728.847 316.263 730.58C317.999 732.313 320.352 733.286 322.806 733.286V733.286Z" fill="#FFA723"/>
<path id="Vector_8" fill-rule="evenodd" clip-rule="evenodd" d="M304.967 751.768C304.509 750.806 304.281 749.752 304.3 748.688C304.3 744.514 306.398 740.217 310.272 737.229C308.338 736.634 306.324 736.343 304.3 736.367C291.963 736.367 288.879 745.607 288.879 748.688C288.879 751.768 291.963 751.768 291.963 751.768H304.967Z" fill="#FFA723"/>
<path id="Vector_9" d="M302.758 733.286C304.803 733.286 306.764 732.475 308.21 731.031C309.656 729.586 310.468 727.628 310.468 725.585C310.468 723.543 309.656 721.584 308.21 720.14C306.764 718.696 304.803 717.885 302.758 717.885C300.713 717.885 298.751 718.696 297.305 720.14C295.859 721.584 295.047 723.543 295.047 725.585C295.047 727.628 295.859 729.586 297.305 731.031C298.751 732.475 300.713 733.286 302.758 733.286V733.286Z" fill="#FFA723"/>
</g>
</g>
</g>
<g id="q-item-1">
<ellipse id="Ellipse 172_4" cx="65.7983" cy="307.658" rx="65.7983" ry="65.7124" fill="#FFF5E5"/>
<g id="bi:people-fill_4" clip-path="url(#clip3_1125_453)">
<g id="Group_4">
<path id="Vector_10" d="M62.7152 326.139C62.7152 326.139 59.6309 326.139 59.6309 323.059C59.6309 319.978 62.7152 310.738 75.0523 310.738C87.3895 310.738 90.4738 319.978 90.4738 323.059C90.4738 326.139 87.3895 326.139 87.3895 326.139H62.7152ZM75.0523 307.657C77.5063 307.657 79.8599 306.684 81.5951 304.951C83.3304 303.218 84.3052 300.867 84.3052 298.417C84.3052 295.966 83.3304 293.615 81.5951 291.882C79.8599 290.149 77.5063 289.176 75.0523 289.176C72.5983 289.176 70.2448 290.149 68.5096 291.882C66.7743 293.615 65.7994 295.966 65.7994 298.417C65.7994 300.867 66.7743 303.218 68.5096 304.951C70.2448 306.684 72.5983 307.657 75.0523 307.657V307.657Z" fill="#FFA723"/>
<path id="Vector_11" fill-rule="evenodd" clip-rule="evenodd" d="M57.2127 326.139C56.7554 325.177 56.5274 324.123 56.5465 323.059C56.5465 318.885 58.6438 314.588 62.5177 311.6C60.5841 311.005 58.5696 310.714 56.5465 310.738C44.2093 310.738 41.125 319.978 41.125 323.059C41.125 326.139 44.2093 326.139 44.2093 326.139H57.2127Z" fill="#FFA723"/>
<path id="Vector_12" d="M55.0037 307.657C57.0487 307.657 59.01 306.846 60.456 305.402C61.9021 303.958 62.7144 301.999 62.7144 299.957C62.7144 297.914 61.9021 295.955 60.456 294.511C59.01 293.067 57.0487 292.256 55.0037 292.256C52.9587 292.256 50.9974 293.067 49.5514 294.511C48.1053 295.955 47.293 297.914 47.293 299.957C47.293 301.999 48.1053 303.958 49.5514 305.402C50.9974 306.846 52.9587 307.657 55.0037 307.657V307.657Z" fill="#FFA723"/>
</g>
</g>
</g>
<g id="q-item-small-4">
<ellipse id="Ellipse 172_5" cx="550.544" cy="667.744" rx="41.1239" ry="41.0702" fill="#DDDDDD"/>
<g id="bi:people-fill_5" clip-path="url(#clip4_1125_453)">
<g id="Group_5">
<path id="Vector_13" d="M548.615 679.293C548.615 679.293 546.688 679.293 546.688 677.368C546.688 675.443 548.615 669.668 556.326 669.668C564.037 669.668 565.964 675.443 565.964 677.368C565.964 679.293 564.037 679.293 564.037 679.293L548.615 679.293ZM556.326 667.742C557.86 667.742 559.331 667.134 560.415 666.051C561.5 664.968 562.109 663.499 562.109 661.967C562.109 660.435 561.5 658.966 560.415 657.883C559.331 656.8 557.86 656.191 556.326 656.191C554.792 656.191 553.321 656.8 552.237 657.883C551.152 658.966 550.543 660.435 550.543 661.967C550.543 663.499 551.152 664.968 552.237 666.051C553.321 667.134 554.792 667.742 556.326 667.742V667.742Z" fill="#1D1D1D"/>
<path id="Vector_14" fill-rule="evenodd" clip-rule="evenodd" d="M545.176 679.293C544.89 678.692 544.748 678.033 544.76 677.368C544.76 674.759 546.07 672.073 548.492 670.206C547.283 669.834 546.024 669.652 544.76 669.667C537.049 669.667 535.121 675.442 535.121 677.368C535.121 679.293 537.049 679.293 537.049 679.293L545.176 679.293Z" fill="#1D1D1D"/>
<path id="Vector_15" d="M543.796 667.743C545.074 667.743 546.3 667.236 547.203 666.333C548.107 665.431 548.615 664.207 548.615 662.93C548.615 661.654 548.107 660.429 547.203 659.527C546.3 658.624 545.074 658.117 543.796 658.117C542.518 658.117 541.292 658.624 540.388 659.527C539.484 660.429 538.977 661.654 538.977 662.93C538.977 664.207 539.484 665.431 540.388 666.333C541.292 667.236 542.518 667.743 543.796 667.743V667.743Z" fill="#1D1D1D"/>
</g>
</g>
</g>
<g id="q-item-small-3">
<ellipse id="Ellipse 172_6" cx="661.927" cy="252.586" rx="41.1239" ry="41.0702" fill="#DDDDDD"/>
<g id="bi:people-fill_6" clip-path="url(#clip5_1125_453)">
<g id="Group_6">
<path id="Vector_16" d="M659.998 264.135C659.998 264.135 658.07 264.135 658.07 262.21C658.07 260.285 659.998 254.509 667.709 254.509C675.419 254.509 677.347 260.285 677.347 262.21C677.347 264.135 675.419 264.135 675.419 264.135L659.998 264.135ZM667.709 252.584C669.242 252.584 670.713 251.976 671.798 250.893C672.882 249.809 673.492 248.34 673.492 246.809C673.492 245.277 672.882 243.808 671.798 242.725C670.713 241.642 669.242 241.033 667.709 241.033C666.175 241.033 664.704 241.642 663.619 242.725C662.535 243.808 661.926 245.277 661.926 246.809C661.926 248.34 662.535 249.809 663.619 250.893C664.704 251.976 666.175 252.584 667.709 252.584V252.584Z" fill="#1D1D1D"/>
<path id="Vector_17" fill-rule="evenodd" clip-rule="evenodd" d="M656.559 264.134C656.273 263.533 656.13 262.875 656.142 262.209C656.142 259.601 657.453 256.915 659.874 255.048C658.666 254.676 657.407 254.494 656.142 254.509C648.432 254.509 646.504 260.284 646.504 262.209C646.504 264.134 648.432 264.134 648.432 264.134L656.559 264.134Z" fill="#1D1D1D"/>
<path id="Vector_18" d="M655.179 252.585C656.457 252.585 657.683 252.078 658.586 251.175C659.49 250.273 659.998 249.048 659.998 247.772C659.998 246.495 659.49 245.271 658.586 244.369C657.683 243.466 656.457 242.959 655.179 242.959C653.9 242.959 652.675 243.466 651.771 244.369C650.867 245.271 650.359 246.495 650.359 247.772C650.359 249.048 650.867 250.273 651.771 251.175C652.675 252.078 653.9 252.585 655.179 252.585V252.585Z" fill="#1D1D1D"/>
</g>
</g>
</g>
<g id="q-item-small-2">
<ellipse id="Ellipse 172_7" cx="135.866" cy="558.275" rx="41.1239" ry="41.0702" fill="#DDDDDD"/>
<g id="bi:people-fill_7" clip-path="url(#clip6_1125_453)">
<g id="Group_7">
<path id="Vector_19" d="M133.937 569.825C133.937 569.825 132.01 569.825 132.01 567.9C132.01 565.974 133.937 560.199 141.648 560.199C149.359 560.199 151.287 565.974 151.287 567.9C151.287 569.825 149.359 569.825 149.359 569.825L133.937 569.825ZM141.648 558.274C143.182 558.274 144.653 557.665 145.737 556.582C146.822 555.499 147.431 554.03 147.431 552.498C147.431 550.966 146.822 549.497 145.737 548.414C144.653 547.331 143.182 546.723 141.648 546.723C140.114 546.723 138.643 547.331 137.559 548.414C136.474 549.497 135.865 550.966 135.865 552.498C135.865 554.03 136.474 555.499 137.559 556.582C138.643 557.665 140.114 558.274 141.648 558.274V558.274Z" fill="#1D1D1D"/>
<path id="Vector_20" fill-rule="evenodd" clip-rule="evenodd" d="M130.498 569.824C130.212 569.223 130.07 568.564 130.082 567.899C130.082 565.29 131.393 562.605 133.814 560.737C132.605 560.365 131.346 560.183 130.082 560.198C122.371 560.198 120.443 565.974 120.443 567.899C120.443 569.824 122.371 569.824 122.371 569.824L130.498 569.824Z" fill="#1D1D1D"/>
<path id="Vector_21" d="M129.118 558.274C130.396 558.274 131.622 557.767 132.526 556.865C133.43 555.962 133.937 554.738 133.937 553.461C133.937 552.185 133.43 550.961 132.526 550.058C131.622 549.156 130.396 548.648 129.118 548.648C127.84 548.648 126.614 549.156 125.71 550.058C124.807 550.961 124.299 552.185 124.299 553.461C124.299 554.738 124.807 555.962 125.71 556.865C126.614 557.767 127.84 558.274 129.118 558.274V558.274Z" fill="#1D1D1D"/>
</g>
</g>
</g>
<g id="q-item-small-1">
<ellipse id="Ellipse 172_8" cx="246.224" cy="141.34" rx="41.1239" ry="41.0702" fill="#DDDDDD"/>
<g id="bi:people-fill_8" clip-path="url(#clip7_1125_453)">
<g id="Group_8">
<path id="Vector_22" d="M244.295 152.889C244.295 152.889 242.367 152.889 242.367 150.964C242.367 149.039 244.295 143.263 252.006 143.263C259.716 143.263 261.644 149.039 261.644 150.964C261.644 152.889 259.716 152.889 259.716 152.889L244.295 152.889ZM252.006 141.338C253.539 141.338 255.01 140.73 256.095 139.647C257.179 138.563 257.789 137.094 257.789 135.563C257.789 134.031 257.179 132.562 256.095 131.479C255.01 130.396 253.539 129.787 252.006 129.787C250.472 129.787 249.001 130.396 247.916 131.479C246.832 132.562 246.223 134.031 246.223 135.563C246.223 137.094 246.832 138.563 247.916 139.647C249.001 140.73 250.472 141.338 252.006 141.338V141.338Z" fill="#1D1D1D"/>
<path id="Vector_23" fill-rule="evenodd" clip-rule="evenodd" d="M240.856 152.888C240.57 152.287 240.427 151.628 240.439 150.963C240.439 148.355 241.75 145.669 244.171 143.802C242.963 143.43 241.704 143.248 240.439 143.263C232.728 143.263 230.801 149.038 230.801 150.963C230.801 152.888 232.728 152.888 232.728 152.888L240.856 152.888Z" fill="#1D1D1D"/>
<path id="Vector_24" d="M239.475 141.339C240.754 141.339 241.979 140.832 242.883 139.929C243.787 139.026 244.295 137.802 244.295 136.526C244.295 135.249 243.787 134.025 242.883 133.123C241.979 132.22 240.754 131.713 239.475 131.713C238.197 131.713 236.972 132.22 236.068 133.123C235.164 134.025 234.656 135.249 234.656 136.526C234.656 137.802 235.164 139.026 236.068 139.929C236.972 140.832 238.197 141.339 239.475 141.339V141.339Z" fill="#1D1D1D"/>
</g>
</g>
</g>
</g>
<ellipse id="q-circle-center" cx="399.425" cy="399.427" rx="246.743" ry="246.421" fill="url(#paint0_radial_1125_453)"/>
<path id="q-word" d="M369.565 449.217V445.098C369.647 430.965 370.909 419.699 373.351 411.3C375.875 402.901 379.538 396.118 384.342 390.949C389.145 385.78 394.926 381.096 401.683 376.897C406.731 373.666 411.249 370.315 415.238 366.842C419.228 363.37 422.403 359.534 424.764 355.334C427.125 351.054 428.305 346.289 428.305 341.04C428.305 335.467 426.962 330.581 424.275 326.382C421.589 322.182 417.966 318.952 413.406 316.691C408.929 314.429 403.962 313.299 398.508 313.299C393.216 313.299 388.209 314.47 383.487 316.812C378.765 319.073 374.898 322.465 371.886 326.987C368.873 331.429 367.245 336.961 367.001 343.583H317.176C317.583 327.432 321.491 314.106 328.899 303.608C336.308 293.028 346.118 285.154 358.33 279.985C370.542 274.736 384.016 272.111 398.752 272.111C414.953 272.111 429.282 274.776 441.738 280.107C454.194 285.356 463.964 292.988 471.047 303.002C478.13 313.016 481.671 325.09 481.671 339.222C481.671 348.671 480.084 357.07 476.909 364.419C473.815 371.688 469.46 378.149 463.842 383.802C458.225 389.374 451.589 394.422 443.936 398.944C437.505 402.74 432.213 406.697 428.061 410.816C423.99 414.935 420.937 419.699 418.902 425.11C416.948 430.521 415.93 437.184 415.849 445.098V449.217H369.565ZM393.745 526.747C385.604 526.747 378.643 523.919 372.863 518.266C367.164 512.532 364.355 505.669 364.436 497.672C364.355 489.758 367.164 482.975 372.863 477.321C378.643 471.668 385.604 468.842 393.745 468.842C401.479 468.842 408.277 471.668 414.139 477.321C420.001 482.975 422.973 489.758 423.054 497.672C422.973 503.003 421.548 507.889 418.78 512.331C416.093 516.692 412.552 520.204 408.155 522.87C403.759 525.454 398.956 526.747 393.745 526.747Z" fill="#FFA723"/>
</g>
<defs>
<radialGradient id="paint0_radial_1125_453" cx="0" cy="0" r="1" gradientUnits="userSpaceOnUse" gradientTransform="translate(399.425 399.427) rotate(90.0988) scale(246.573 246.895)">
<stop stop-color="#FFA723" stop-opacity="0.5"/>
<stop offset="0.557292" stop-color="#FFA723" stop-opacity="0.28"/>
<stop offset="1" stop-color="#FFA723" stop-opacity="0"/>
</radialGradient>
<clipPath id="clip0_1125_453">
<rect width="49.3487" height="49.2843" fill="white" transform="translate(708.529 461.609)"/>
</clipPath>
<clipPath id="clip1_1125_453">
<rect width="49.3487" height="49.2843" fill="white" transform="translate(463.73 41.0703)"/>
</clipPath>
<clipPath id="clip2_1125_453">
<rect width="49.3487" height="49.2843" fill="white" transform="translate(288.879 708.645)"/>
</clipPath>
<clipPath id="clip3_1125_453">
<rect width="49.3487" height="49.2843" fill="white" transform="translate(41.125 283.016)"/>
</clipPath>
<clipPath id="clip4_1125_453">
<rect width="30.8429" height="30.8027" fill="white" transform="translate(535.121 652.342)"/>
</clipPath>
<clipPath id="clip5_1125_453">
<rect width="30.8429" height="30.8027" fill="white" transform="translate(646.504 237.184)"/>
</clipPath>
<clipPath id="clip6_1125_453">
<rect width="30.8429" height="30.8027" fill="white" transform="translate(120.443 542.873)"/>
</clipPath>
<clipPath id="clip7_1125_453">
<rect width="30.8429" height="30.8027" fill="white" transform="translate(230.801 125.938)"/>
</clipPath>
</defs>
</svg>
